<?xml version="1.0" encoding="utf-8"?>
<!-- Generator: Adobe Illustrator 24.3.0, SVG Export Plug-In . SVG Version: 6.00 Build 0)  -->
<svg version="1.1" id="Слой_1" xmlns="http://www.w3.org/2000/svg" xmlns:xlink="http://www.w3.org/1999/xlink" x="0px" y="0px"
	 viewBox="0 0 512 512" style="enable-background:new 0 0 512 512;" xml:space="preserve">
<style type="text/css">
	.st0{fill:#FFFFFF;}
</style>
<g>
	<g>
		<path class="st0" d="M512,512c-170.61,0-341.29,0-512,0C0,341.36,0,170.73,0,0c170.6,0,341.22,0,512,0
			C512,170.61,512,341.3,512,512z M161.61,495.99c3.13,0,4.78,0,6.43,0c98.01,0,196.03,0,294.04,0c20.62,0,34.05-13.46,34.05-34.11
			c0.01-137.34,0.01-274.69,0-412.03c0-20.34-13.5-33.91-33.75-33.91c-137.53-0.01-275.07-0.01-412.6,0
			c-20.27,0-33.79,13.56-33.79,33.88c-0.01,98.17,0,196.35,0,294.52c0,1.6,0,3.2,0,6.08c46.74-46.73,92.58-92.57,137.78-137.76
			c11.1,11.09,21.77,21.75,32.88,32.84c-1.01,0.85-2.52,1.93-3.81,3.22C128.36,303.13,73.91,357.6,19.39,411.98
			c-2.42,2.41-3.54,4.76-3.48,8.24c0.21,12.66,0.07,25.33,0.1,38c0,1.37,0.2,2.74,0.3,4.12c0.42,0.23,0.85,0.46,1.27,0.69
			c77.63-77.61,155.25-155.23,231.96-231.93c10.53,10.53,21.18,21.18,32.98,32.98c-77.01,77-154.58,154.55-231.94,231.9
			c13.24,0,27.07-0.11,40.9,0.08c3.6,0.05,6.13-0.95,8.72-3.54c54.26-54.41,108.63-108.72,162.95-163.08
			c1.41-1.41,2.56-3.08,3.72-4.49c11.23,11.28,21.91,22.01,32.85,33C254.22,403.42,208.42,449.21,161.61,495.99z"/>
		<path d="M161.61,495.99c46.81-46.78,92.61-92.56,138.11-138.03c-10.95-11-21.62-21.72-32.85-33c-1.16,1.41-2.31,3.08-3.72,4.49
			C208.82,383.8,154.46,438.11,100.2,492.52c-2.58,2.59-5.12,3.59-8.72,3.54c-13.83-0.19-27.66-0.08-40.9-0.08
			c77.36-77.35,154.93-154.9,231.94-231.9c-11.8-11.8-22.45-22.45-32.98-32.98C172.83,307.81,95.2,385.42,17.57,463.03
			c-0.42-0.23-0.85-0.46-1.27-0.69c-0.11-1.37-0.3-2.74-0.3-4.12c-0.02-12.67,0.11-25.34-0.1-38c-0.06-3.48,1.07-5.83,3.48-8.24
			C73.91,357.6,128.36,303.13,182.84,248.7c1.29-1.29,2.8-2.37,3.81-3.22c-11.1-11.09-21.77-21.75-32.88-32.84
			c-45.2,45.2-91.04,91.03-137.78,137.76c0-2.88,0-4.48,0-6.08c0-98.17-0.01-196.35,0-294.52c0-20.32,13.52-33.87,33.79-33.88
			c137.53-0.01,275.07-0.01,412.6,0c20.25,0,33.75,13.57,33.75,33.91c0.01,137.34,0.01,274.69,0,412.03
			c0,20.65-13.44,34.11-34.05,34.11c-98.01,0.01-196.03,0-294.04,0C166.39,495.99,164.74,495.99,161.61,495.99z"/>
	</g>
</g>
</svg>
